<svg width="317" height="83" viewBox="0 0 317 83" fill="none" xmlns="http://www.w3.org/2000/svg">
<path d="M54.7018 21.4855L9.41425 13.1516L33.2475 73.1223L66.4554 32.6635L54.7018 21.4855ZM53.973 25.1576L60.9004 31.742L41.9529 35.1731L53.973 25.1576ZM37.8384 34.4868L17.8672 17.9239L50.5079 23.9298L37.8384 34.4868ZM36.4149 37.4161L33.1596 64.3375L15.6015 20.1527L36.4149 37.4161ZM39.4292 38.8452L60.4098 35.0455L36.344 64.3659L39.4292 38.8452Z" fill="#EB0029"/>
<path d="M89.676 53.306C88.6673 53.306 87.687 53.17 86.735 52.898C85.7943 52.626 84.78 52.201 83.692 51.623L82.468 53H81.533L80.887 44.381L82.128 44.177C82.842 46.7497 83.7827 48.614 84.95 49.77C86.1173 50.926 87.67 51.504 89.608 51.504C91.0587 51.504 92.2147 51.1527 93.076 50.45C93.9373 49.7473 94.368 48.7897 94.368 47.577C94.368 46.761 94.0677 46.0187 93.467 45.35C92.8663 44.67 91.8463 43.9673 90.407 43.242L87.721 41.865C85.5337 40.7543 83.9357 39.5643 82.927 38.295C81.9297 37.0257 81.431 35.5467 81.431 33.858C81.431 32.4867 81.7937 31.2683 82.519 30.203C83.2557 29.1263 84.2473 28.282 85.494 27.67C86.752 27.058 88.1687 26.752 89.744 26.752C91.9427 26.752 93.8353 27.449 95.422 28.843L96.306 27.058H97.292L97.615 34.504H96.306C95.7507 32.5207 94.946 31.0417 93.892 30.067C92.8493 29.081 91.5233 28.588 89.914 28.588C88.724 28.588 87.789 28.8883 87.109 29.489C86.4403 30.0897 86.106 30.917 86.106 31.971C86.106 32.8323 86.412 33.603 87.024 34.283C87.6473 34.963 88.7127 35.694 90.22 36.476L92.855 37.836C94.8497 38.8673 96.289 40.0063 97.173 41.253C98.057 42.4997 98.499 43.973 98.499 45.673C98.499 47.1123 98.108 48.41 97.326 49.566C96.5553 50.722 95.5013 51.6343 94.164 52.303C92.838 52.9717 91.342 53.306 89.676 53.306ZM114.256 53.357C112.318 53.357 110.596 53.0567 109.088 52.456C107.592 51.8553 106.419 50.9997 105.569 49.889C105.071 49.2543 104.708 48.5063 104.481 47.645C104.266 46.7837 104.158 45.6503 104.158 44.245V28.826L101.268 28.197V27.109H112.318V28.197L109.343 28.826V44.398C109.343 46.642 109.87 48.3703 110.924 49.583C111.978 50.7957 113.446 51.402 115.327 51.402C117.537 51.402 119.147 50.705 120.155 49.311C120.654 48.6197 121.017 47.696 121.243 46.54C121.47 45.384 121.583 43.854 121.583 41.95V28.826L118.608 28.197V27.109H126.615V28.197L123.623 28.826V43.718C123.623 45.044 123.499 46.2227 123.249 47.254C123 48.2853 122.637 49.175 122.161 49.923C121.425 51.045 120.393 51.9007 119.067 52.49C117.741 53.068 116.138 53.357 114.256 53.357ZM150.478 53.442L133.886 31.92V51.232L136.861 51.895V53H128.854V51.895L131.846 51.232V28.826L128.854 28.197V27.109H137.32L150.393 43.956V28.826L147.401 28.197V27.109H155.425V28.197L152.399 28.826V53.442H150.478ZM188.23 53.442L171.638 31.92V51.232L174.613 51.895V53H166.606V51.895L169.598 51.232V28.826L166.606 28.197V27.109H175.072L188.145 43.956V28.826L185.153 28.197V27.109H193.177V28.197L190.151 28.826V53.442H188.23ZM204.515 53.357C202.725 53.357 201.161 52.983 199.823 52.235C198.486 51.4757 197.443 50.4217 196.695 49.073C195.959 47.713 195.59 46.1433 195.59 44.364C195.59 42.4713 195.998 40.811 196.814 39.383C197.642 37.955 198.786 36.8387 200.248 36.034C201.722 35.2293 203.427 34.827 205.365 34.827C207.825 34.827 209.7 35.507 210.992 36.867C212.296 38.227 212.981 40.2273 213.049 42.868L212.794 43.072H198.616V41.729L208.034 41.389C208.114 41.1283 208.153 40.6977 208.153 40.097C208.153 37.6037 207.094 36.357 204.974 36.357C203.558 36.357 202.464 36.952 201.693 38.142C200.934 39.3207 200.554 40.998 200.554 43.174C200.554 47.832 202.362 50.161 205.977 50.161C208.425 50.161 210.335 49.311 211.706 47.611L212.539 48.274C211.939 49.8833 210.93 51.1357 209.513 52.031C208.108 52.915 206.442 53.357 204.515 53.357ZM221.854 53.357C220.267 53.357 219.117 52.9887 218.403 52.252C217.7 51.504 217.349 50.348 217.349 48.784V36.714H215.02L214.85 35.813L221.072 30.679L221.99 30.815V35.167H227.073L226.648 36.714H221.99V48.444C221.99 50.2573 222.681 51.164 224.064 51.164C224.472 51.164 224.869 51.079 225.254 50.909C225.639 50.739 225.985 50.467 226.291 50.093L227.005 50.994C226.438 51.7533 225.702 52.337 224.795 52.745C223.888 53.153 222.908 53.357 221.854 53.357ZM247.43 53.357L241.565 37.649C241.361 37.1163 241.1 36.7593 240.783 36.578C240.477 36.3853 239.916 36.2607 239.1 36.204V35.167H249.368V36.204C248.167 36.2833 247.419 36.4363 247.124 36.663C246.829 36.8783 246.79 37.326 247.005 38.006L250.065 47.696H250.201L253.346 38.754C253.448 38.482 253.527 38.2383 253.584 38.023C253.641 37.8077 253.669 37.615 253.669 37.445C253.669 37.0937 253.493 36.833 253.142 36.663C252.802 36.4817 252.173 36.3287 251.255 36.204V35.167H258.854V36.204C257.936 36.34 257.245 36.5043 256.78 36.697C256.327 36.8783 255.992 37.1333 255.777 37.462C255.562 37.7793 255.346 38.2213 255.131 38.788L249.776 53.357H247.43ZM235.445 53.357L229.461 37.649C229.257 37.1163 228.996 36.7593 228.679 36.578C228.373 36.3853 227.778 36.2607 226.894 36.204V35.167H237.366V36.204C236.561 36.2493 235.966 36.3287 235.581 36.442C235.196 36.544 234.969 36.714 234.901 36.952C234.844 37.19 234.884 37.5413 235.02 38.006L238.063 47.696H238.199L242.449 37.36L244.098 37.513L237.706 53.357H235.445ZM268.143 53.357C266.193 53.357 264.516 52.9433 263.111 52.116C261.705 51.2887 260.629 50.1723 259.881 48.767C259.133 47.3617 258.759 45.8033 258.759 44.092C258.759 42.3693 259.133 40.811 259.881 39.417C260.629 38.0117 261.705 36.8953 263.111 36.068C264.516 35.2407 266.193 34.827 268.143 34.827C270.092 34.827 271.764 35.2407 273.158 36.068C274.563 36.8953 275.64 38.0117 276.388 39.417C277.147 40.811 277.527 42.3693 277.527 44.092C277.527 45.8033 277.147 47.3617 276.388 48.767C275.64 50.1723 274.563 51.2887 273.158 52.116C271.764 52.9433 270.092 53.357 268.143 53.357ZM268.143 51.674C268.959 51.674 269.644 51.453 270.2 51.011C270.755 50.569 271.197 49.9797 271.526 49.243C271.854 48.495 272.092 47.6733 272.24 46.778C272.387 45.8827 272.461 44.9817 272.461 44.075C272.461 43.1797 272.387 42.2843 272.24 41.389C272.104 40.4937 271.871 39.6777 271.543 38.941C271.214 38.2043 270.772 37.615 270.217 37.173C269.661 36.731 268.97 36.51 268.143 36.51C267.315 36.51 266.624 36.731 266.069 37.173C265.513 37.615 265.071 38.2043 264.743 38.941C264.414 39.6777 264.176 40.4993 264.029 41.406C263.893 42.3013 263.825 43.1967 263.825 44.092C263.825 44.9987 263.893 45.8997 264.029 46.795C264.176 47.679 264.414 48.495 264.743 49.243C265.071 49.9797 265.513 50.569 266.069 51.011C266.624 51.453 267.315 51.674 268.143 51.674ZM279.785 53V51.963L282.318 51.334V38.091L279.785 37.139V36.442L286.177 34.827H286.789V38.091L286.925 38.261V51.334L291.039 51.963V53H279.785ZM286.602 40.25V38.261C287.486 37.139 288.359 36.2833 289.22 35.694C290.082 35.0933 290.909 34.793 291.702 34.793C292.473 34.793 293.113 35.0253 293.623 35.49C294.133 35.9433 294.388 36.5043 294.388 37.173C294.388 37.8077 294.19 38.346 293.793 38.788C293.408 39.2187 292.926 39.434 292.348 39.434C291.77 39.434 291.255 39.2243 290.801 38.805C290.507 38.5217 290.246 38.3233 290.019 38.21C289.793 38.0853 289.555 38.023 289.305 38.023C288.931 38.023 288.478 38.2383 287.945 38.669C287.413 39.0997 286.965 39.6267 286.602 40.25ZM295.266 53V51.963L298.037 51.334V28.299L295.283 27.398V26.718L302.015 25.069H302.644V51.334L305.449 51.963V53H295.266ZM309.699 53L304.123 44.466L306.894 40.828L314.17 51.334L316.958 51.963V53H309.699ZM301.726 47.39L301.131 45.775L308.169 38.21C308.429 37.9267 308.628 37.6887 308.764 37.496C308.9 37.3033 308.968 37.139 308.968 37.003C308.968 36.8103 308.781 36.6573 308.407 36.544C308.033 36.4307 307.29 36.3173 306.18 36.204V35.167H314.952V36.204C313.988 36.3513 313.246 36.4987 312.725 36.646C312.215 36.7933 311.801 36.9803 311.484 37.207C311.178 37.4337 310.843 37.7397 310.481 38.125L301.726 47.39Z" fill="#9C3C41"/>
</svg>
